<svg width="8" height="12" xmlns="http://www.w3.org/2000/svg" xmlns:xlink="http://www.w3.org/1999/xlink" xml:space="preserve" overflow="hidden"><g transform="translate(-420 -521)"><g><g><g><g><path d="M65.4433 25.732C64.939 25.8072 64.6495 25.4595 64.6186 24.9485 64.6293 24.4666 64.9901 24.2343 65.4433 24.1649 65.9773 24.2414 66.353 24.5304 66.268 24.9485 66.2305 25.4462 65.9567 25.6171 65.4433 25.732Z" stroke="#000000" stroke-width="0.494845" stroke-linecap="butt" stroke-linejoin="miter" stroke-miterlimit="8" stroke-opacity="1" fill="none" fill-rule="evenodd" transform="matrix(1 0 0 1.11146 355.67 499.725)"/><path d="M67.8351 28.0412C67.3852 28.1697 67.0866 27.6167 67.0103 27.2577 67.0693 26.7976 67.4157 26.4731 67.8351 26.4742 68.2557 26.4962 68.7014 26.7923 68.6598 27.2577 68.5654 27.6663 68.3629 28.0045 67.8351 28.0412Z" stroke="#000000" stroke-width="0.494845" stroke-linecap="butt" stroke-linejoin="miter" stroke-miterlimit="8" stroke-opacity="1" fill="none" fill-rule="evenodd" transform="matrix(1 0 0 1.11146 355.67 499.725)"/><path d="M67.8351 23.4227C67.2961 23.4121 67.0219 23.0584 67.0103 22.6392 67.0037 22.2232 67.2722 21.8266 67.8351 21.8557 68.268 21.8235 68.7852 22.2532 68.6598 22.6392 68.7868 23.1087 68.2383 23.3664 67.8351 23.4227Z" stroke="#000000" stroke-width="0.494845" stroke-linecap="butt" stroke-linejoin="miter" stroke-miterlimit="8" stroke-opacity="1" fill="none" fill-rule="evenodd" transform="matrix(1 0 0 1.11146 355.67 499.725)"/><path d="M69.6701 26.1443C69.3089 26.1508 69.0004 25.7975 69.0309 25.5464 69.0619 25.268 69.3039 24.9072 69.6701 24.9485 69.9732 24.9719 70.3674 25.2337 70.3093 25.5464 70.2602 25.8432 70.0165 26.068 69.6701 26.1443Z" stroke="#000000" stroke-width="0.494845" stroke-linecap="butt" stroke-linejoin="miter" stroke-miterlimit="8" stroke-opacity="1" fill="none" fill-rule="evenodd" transform="matrix(1 0 0 1.11146 355.67 499.725)"/><path d="M0 0 1.20862 1.22423" stroke="#000000" stroke-width="0.494845" stroke-linecap="butt" stroke-linejoin="miter" stroke-miterlimit="8" stroke-opacity="1" fill="none" fill-rule="evenodd" transform="matrix(1.83697e-16 1.11146 1 -2.04172e-16 421.691 528.05)"/><path d="M66.0206 24.3839 67.2449 23.1753" stroke="#000000" stroke-width="0.494845" stroke-linecap="butt" stroke-linejoin="miter" stroke-miterlimit="8" stroke-opacity="1" fill="none" fill-rule="evenodd" transform="matrix(1 0 0 1.11146 355.67 499.725)"/><path d="M69.2342 25.9794 68.4124 26.7125" stroke="#000000" stroke-width="0.494845" stroke-linecap="butt" stroke-linejoin="miter" stroke-miterlimit="8" stroke-opacity="1" fill="none" fill-rule="evenodd" transform="matrix(1 0 0 1.11146 355.67 499.725)"/><path d="M69.6495 29.6082C69.268 29.6225 68.9616 29.337 69.0309 28.9897 69.0231 28.6812 69.3179 28.4257 69.6495 28.3711 70.0606 28.3382 70.2606 28.6299 70.268 28.9897 70.2726 29.2349 70.0173 29.606 69.6495 29.6082Z" stroke="#000000" stroke-width="0.494845" stroke-linecap="butt" stroke-linejoin="miter" stroke-miterlimit="8" stroke-opacity="1" fill="none" fill-rule="evenodd" transform="matrix(1 0 0 1.11146 355.67 499.725)"/><path d="M0 0 0.741621 0.781542" stroke="#000000" stroke-width="0.494845" stroke-linecap="butt" stroke-linejoin="miter" stroke-miterlimit="8" stroke-opacity="1" fill="none" fill-rule="evenodd" transform="matrix(-1.83697e-16 -1.11146 -1 2.04172e-16 424.864 531.487)"/><path d="M69.6701 21.567C69.3336 21.5696 69.0866 21.2981 69.0309 20.9691 69.0058 20.5945 69.2866 20.313 69.6701 20.3711 70.0087 20.3104 70.3872 20.6421 70.3093 20.9691 70.3262 21.2893 70.0124 21.5767 69.6701 21.567Z" stroke="#000000" stroke-width="0.494845" stroke-linecap="butt" stroke-linejoin="miter" stroke-miterlimit="8" stroke-opacity="1" fill="none" fill-rule="evenodd" transform="matrix(1 0 0 1.11146 355.67 499.725)"/><path d="M69.2342 21.4021 68.4124 22.0914" stroke="#000000" stroke-width="0.494845" stroke-linecap="butt" stroke-linejoin="miter" stroke-miterlimit="8" stroke-opacity="1" fill="none" fill-rule="evenodd" transform="matrix(1 0 0 1.11146 355.67 499.725)"/><path d="M71.4021 27.8763C71.0231 27.8887 70.8198 27.6583 70.7629 27.2783 70.7847 26.9141 70.9654 26.7218 71.4021 26.6804 71.7505 26.7011 71.9769 26.9406 72.0412 27.2783 72.0334 27.6139 71.7225 27.8539 71.4021 27.8763Z" stroke="#000000" stroke-width="0.494845" stroke-linecap="butt" stroke-linejoin="miter" stroke-miterlimit="8" stroke-opacity="1" fill="none" fill-rule="evenodd" transform="matrix(1 0 0 1.11146 355.67 499.725)"/><path d="M70.1031 28.5817 70.9695 27.7113" stroke="#000000" stroke-width="0.494845" stroke-linecap="butt" stroke-linejoin="miter" stroke-miterlimit="8" stroke-opacity="1" fill="none" fill-rule="evenodd" transform="matrix(1 0 0 1.11146 355.67 499.725)"/></g></g></g></g></g></svg>